<svg width="1197" height="1197" viewBox="0 0 1197 1197" fill="none" xmlns="http://www.w3.org/2000/svg">
<circle cx="598.5" cy="598.5" r="598.5" fill="url(#paint0_linear_239_2)"/>
<path fill-rule="evenodd" clip-rule="evenodd" d="M279.3 468.825V718.2C279.3 790.02 339.15 827.925 369.075 837.9H628.425C692.265 837.9 721.525 758.1 728.175 718.2V468.825C728.175 404.985 661.675 369.075 628.425 359.1H369.075C304.279 381.977 289.103 435.25 282.166 459.602C281.056 463.497 280.157 466.652 279.3 468.825ZM778.055 508.725V688.275C785.087 749.204 844.579 767.404 877.805 768.075C912.458 762.028 921.195 718.519 917.705 698.25V468.825C898.307 392.427 773.453 443.82 778.055 508.725ZM438.9 558.601V658.351C438.9 690.271 478.8 691.601 498.75 688.276L588.525 638.401C616.65 611.503 590.48 571.672 578.55 568.576L498.75 518.701C458.85 502.741 442.225 538.651 438.9 558.601Z" fill="white"/>
<defs>
<linearGradient id="paint0_linear_239_2" x1="-1.96199e-05" y1="608.311" x2="1197" y2="608.312" gradientUnits="userSpaceOnUse">
<stop stop-color="#FF7B8E"/>
<stop offset="1" stop-color="#FF5870"/>
</linearGradient>
</defs>
</svg>
